<svg width="32" height="32" xmlns="http://www.w3.org/2000/svg">
    <style>
        .favicon-bg {
            fill: #FFF;
        }
        .favicon-m {
            fill: #009EE2;
        }
        @media (prefers-color-scheme: dark) {
            .favicon-bg {
                fill: #31374F;
            }
        }
    </style>
    <g fill="none" fill-rule="evenodd">
        <path class="favicon-bg" d="M5.1277704,-2.07168062e-16 L26.8722296,2.07168062e-16 C28.6552671,-1.2037061e-16 29.3018396,0.185651222 29.9536914,0.534265408 C30.6055433,0.882879593 31.1171204,1.39445674 31.4657346,2.04630859 C31.8143488,2.69816044 32,3.34473292 32,5.1277704 L32,26.8722296 C32,28.6552671 31.8143488,29.3018396 31.4657346,29.9536914 C31.1171204,30.6055433 30.6055433,31.1171204 29.9536914,31.4657346 C29.3018396,31.8143488 28.6552671,32 26.8722296,32 L5.1277704,32 C3.34473292,32 2.69816044,31.8143488 2.04630859,31.4657346 C1.39445674,31.1171204 0.882879593,30.6055433 0.534265408,29.9536914 C0.185651222,29.3018396 8.02470732e-17,28.6552671 -1.38112041e-16,26.8722296 L1.38112041e-16,5.1277704 C-8.02470732e-17,3.34473292 0.185651222,2.69816044 0.534265408,2.04630859 C0.882879593,1.39445674 1.39445674,0.882879593 2.04630859,0.534265408 C2.69816044,0.185651222 3.34473292,1.2037061e-16 5.1277704,-2.07168062e-16 Z" id="Rectangle"></path>
        <path d="M17.05 15.2v-1c0-.43.14-.8.44-1.09.3-.3.66-.44 1.1-.44.4 0 .73.12 1 .38.28.26.44.58.48.98h1.9a3.42 3.42 0 00-1.1-2.28 3.24 3.24 0 00-2.28-.92c-.95 0-1.76.34-2.43 1-.68.68-1.01 1.47-1.01 2.37v3.25h1.9v-2.24zm3.02 2.67c0 .44-.15.8-.45 1.1-.3.3-.66.45-1.1.45-.67 0-1.15-.32-1.43-.95l-1.54 1.07a3.24 3.24 0 002.97 1.73c.95 0 1.76-.34 2.44-1.02a3.26 3.26 0 001-2.38v-.42h-1.9v.42zm10.91-.04c-.04-.48-.16-.9-.38-1.28-.22-.37-.54-.7-.98-.97a7.95 7.95 0 00-2.66-1.16c-.2-.06-.34-.1-.42-.15-.27-.16-.41-.31-.41-.47 0-.75.47-1.13 1.42-1.13.87 0 1.38.46 1.54 1.36h1.9a3.44 3.44 0 00-3.44-3.2c-.99 0-1.79.28-2.4.83a2.81 2.81 0 00-.92 2.2v.06c0 .87.52 1.54 1.54 2.01l.48.18c.23.08.4.14.47.18.83.27 1.42.52 1.78.74.35.22.55.52.59.92.08.35-.06.7-.42 1.06-.23.28-.6.42-1.12.42-.4 0-.74-.15-1.04-.45a1.5 1.5 0 01-.44-1.1v-.4h-1.9v.4c0 .92.34 1.7 1.01 2.38.67.67 1.46 1 2.37 1 1.07 0 1.9-.33 2.49-1a2.96 2.96 0 00.94-2.43zm-19.15-6.1c-.67-.66-1.49-1-2.44-1s-1.78.36-2.5 1.07a3.12 3.12 0 00-2.44-1.07c-.95 0-1.76.33-2.43.98A3.2 3.2 0 001 14.1v3.24h1.9V14.1a1.58 1.58 0 011.55-1.6c.4 0 .75.16 1.05.48.3.32.44.69.44 1.12v3.25h1.9V14.1a1.58 1.58 0 011.55-1.6c.44 0 .8.16 1.1.48.3.32.45.69.45 1.12v3.25h1.9V14.1a3.1 3.1 0 00-1.01-2.36z" class='favicon-m' fill-rule="nonzero"/>
    </g>
</svg>
