<svg xmlns="http://www.w3.org/2000/svg" width="64" height="64" viewBox="0 0 64 64"><g fill="none" fill-rule="evenodd" stroke="currentColor" stroke-linecap="round" stroke-linejoin="round" stroke-width="2" transform="translate(7.138 2.02)"><path d="M15.347513,1.89251302 C21.4393091,-0.630837675 28.2839573,-0.630837675 34.3757534,1.89251302 C40.4675495,4.41577402 45.3074027,9.25571692 47.8307534,15.347513 C50.3540144,21.4393091 50.3540144,28.2839573 47.8307534,34.3757534 C45.3074027,40.4675495 40.4675495,45.3074027 34.3757534,47.8307534 C28.2839573,50.3540144 21.4393091,50.3540144 15.347513,47.8307534 C9.25571692,45.3074027 4.41577402,40.4675495 1.89251302,34.3757534 C-0.630837675,28.2839573 -0.630837675,21.4393091 1.89251302,15.347513 C4.41577402,9.25571692 9.25571692,4.41577402 15.347513,1.89251302 Z"/><path d="M33.4334549,10.9101437 C37.1342975,19.8447122 37.1342975,29.8835774 33.4334549,38.8182356 C31.7588456,42.8611043 29.3885231,46.5280403 26.4671735,49.6743575 C25.3985774,49.7435162 24.3265727,49.7436059 23.2579766,49.6745369 C20.3355506,46.5276815 17.9644208,42.8597588 16.289363,38.8158137 C12.5885204,29.8811555 12.5885204,19.84238 16.289363,10.9077218 C17.9633444,6.86637803 20.3324111,3.20069783 23.2522358,0.055187925 C24.3230744,-0.014239875 25.3973216,-0.014329575 26.4681602,0.055008525 C29.3890613,3.20114633 31.759025,6.86772353 33.4334549,10.9101437 Z"/><line x1="1.346" x2="48.375" y1="32.935" y2="32.935"/><line x1="1.674" x2="48.048" y1="15.892" y2="15.892"/><line x1="24.861" x2="24.862" y1="49.726" y2="53.282"/><circle cx="24.862" cy="58.103" r="1.857"/><line x1="29.994" x2="47.735" y1="58.103" y2="58.103"/><line x1="1.988" x2="19.73" y1="58.103" y2="58.103"/></g></svg>