<svg xmlns="http://www.w3.org/2000/svg" width="64" height="64" viewBox="0 0 64 64"><g fill="none" fill-rule="evenodd" stroke="currentColor" stroke-linecap="round" stroke-linejoin="round" stroke-width="1.82" transform="translate(11.48 4.7)"><path d="M10.92,3.64 L4.55,3.64 C2.037126,3.64 0,5.677126 0,8.19 L0,50.05 C0,52.562874 2.037126,54.6 4.55,54.6 L35.49,54.6 C38.002874,54.6 40.04,52.562874 40.04,50.05 L40.04,8.19 C40.04,5.677126 38.002874,3.64 35.49,3.64 L29.12,3.64"/><path d="M10.92 3.64C10.92 1.629719 12.549719 0 14.56 0L25.48 0C27.490281 0 29.12 1.629719 29.12 3.64 29.12 5.650281 27.490281 7.28 25.48 7.28L14.56 7.28C12.549719 7.28 10.92 5.650281 10.92 3.64ZM13.2999685 29.1996592 17.1395315 33.0756677C17.4932485 33.4327062 18.066685 33.4327062 18.420402 33.0756677L26.739986 24.6771867"/><path d="M32.76,29.1168947 C32.76,36.1530147 27.05612,41.8568947 20.02,41.8568947 C12.98388,41.8568947 7.28,36.1530147 7.28,29.1168947 C7.28,22.0807747 12.98388,16.3768947 20.02,16.3768947 C27.05612,16.3768947 32.76,22.0807747 32.76,29.1168947 Z"/></g></svg>