<svg xmlns="http://www.w3.org/2000/svg" width="64" height="64" viewBox="0 0 64 64"><g fill="none" fill-rule="evenodd" stroke="currentColor" stroke-linecap="round" stroke-linejoin="round" stroke-width="2" transform="translate(8.48 6.088)"><path d="M0,23.3559291 L0,50.0996811 C0,51.9553251 1.504356,53.4596811 3.36,53.4596811 L43.68,53.4596811 C45.535644,53.4596811 47.04,51.9553251 47.04,50.0996811 L47.04,23.3559291"/><path d="M5.88 29.7892371 1.173312 25.7549691C.428652 25.1165691 0 24.1846731 0 23.2038051L0 21.4022571C0 21.3950331.005796 21.3892371.01302 21.3892371.005796 21.3892371 0 21.3834411 0 21.3762171L0 19.5745851C0 18.5937171.428652 17.6618211 1.173312 17.0235051L5.88 12.9892371M41.16168 29.9413611 41.16168 10.4688171C41.16168 8.1492411 39.281256 6.2688171 36.96168 6.2688171L10.08168 6.2688171C7.76202 6.2688171 5.88168 8.1492411 5.88168 10.4688171L5.88168 29.9413611 19.148304 41.3128611C21.66486 43.4698971 25.378416 43.4698971 27.894972 41.3128611L41.16168 29.9413611Z"/><path d="M33.320112 6.2692371 27.89346 1.6178211C25.376904-.5392737 21.663348-.5392737 19.146792 1.6178211L13.72014 6.2692371M41.16 29.7892371 45.866688 25.7549691C46.611432 25.1165691 47.04 24.1846731 47.04 23.2038051L47.04 21.4022571C47.04 21.3950331 47.034204 21.3892371 47.02698 21.3892371 47.034204 21.3892371 47.04 21.3834411 47.04 21.3762171L47.04 19.5745851C47.04 18.5937171 46.611432 17.6618211 45.866688 17.0235051L41.16 12.9892371"/><line x1="13.442" x2="26.882" y1="16.349" y2="16.349"/><line x1="13.442" x2="33.602" y1="23.069" y2="23.069"/><line x1="13.442" x2="26.882" y1="29.789" y2="29.789"/></g></svg>